<mxfile host="app.diagrams.net" modified="2022-08-21T13:23:20.702Z" agent="5.0 (Windows NT 10.0; Win64; x64) AppleWebKit/537.36 (KHTML, like Gecko) Chrome/104.0.0.0 Safari/537.36" etag="ZFZcrz_70z3H-LjQh6PO" version="20.2.4" type="github">
  <diagram id="C5RBs43oDa-KdzZeNtuy" name="Page-1">
    <mxGraphModel dx="1168" dy="546" grid="1" gridSize="10" guides="1" tooltips="1" connect="1" arrows="1" fold="1" page="1" pageScale="1" pageWidth="827" pageHeight="1169" math="0" shadow="0">
      <root>
        <mxCell id="WIyWlLk6GJQsqaUBKTNV-0" />
        <mxCell id="WIyWlLk6GJQsqaUBKTNV-1" parent="WIyWlLk6GJQsqaUBKTNV-0" />
        <mxCell id="o3A2Xmz19UuvL-Se99JD-48" value="" style="edgeStyle=orthogonalEdgeStyle;rounded=0;orthogonalLoop=1;jettySize=auto;html=1;" edge="1" parent="WIyWlLk6GJQsqaUBKTNV-1" source="o3A2Xmz19UuvL-Se99JD-1" target="o3A2Xmz19UuvL-Se99JD-5">
          <mxGeometry relative="1" as="geometry" />
        </mxCell>
        <mxCell id="o3A2Xmz19UuvL-Se99JD-1" value="开始" style="strokeWidth=2;html=1;shape=mxgraph.flowchart.start_2;whiteSpace=wrap;fillColor=#d5e8d4;strokeColor=#82b366;" vertex="1" parent="WIyWlLk6GJQsqaUBKTNV-1">
          <mxGeometry x="375" y="130" width="50" height="50" as="geometry" />
        </mxCell>
        <mxCell id="o3A2Xmz19UuvL-Se99JD-2" value="结束" style="strokeWidth=2;html=1;shape=mxgraph.flowchart.start_2;whiteSpace=wrap;fillColor=#d5e8d4;strokeColor=#82b366;" vertex="1" parent="WIyWlLk6GJQsqaUBKTNV-1">
          <mxGeometry x="375" y="470" width="50" height="50" as="geometry" />
        </mxCell>
        <mxCell id="o3A2Xmz19UuvL-Se99JD-29" value="" style="edgeStyle=orthogonalEdgeStyle;rounded=0;orthogonalLoop=1;jettySize=auto;html=1;" edge="1" parent="WIyWlLk6GJQsqaUBKTNV-1" source="o3A2Xmz19UuvL-Se99JD-5" target="o3A2Xmz19UuvL-Se99JD-27">
          <mxGeometry relative="1" as="geometry" />
        </mxCell>
        <mxCell id="o3A2Xmz19UuvL-Se99JD-5" value="获取SASE&lt;br&gt;应用分组" style="strokeWidth=2;html=1;shape=mxgraph.flowchart.terminator;whiteSpace=wrap;" vertex="1" parent="WIyWlLk6GJQsqaUBKTNV-1">
          <mxGeometry x="350" y="220" width="100" height="40" as="geometry" />
        </mxCell>
        <mxCell id="o3A2Xmz19UuvL-Se99JD-9" value="" style="edgeStyle=orthogonalEdgeStyle;rounded=0;orthogonalLoop=1;jettySize=auto;html=1;" edge="1" parent="WIyWlLk6GJQsqaUBKTNV-1" source="o3A2Xmz19UuvL-Se99JD-10" target="o3A2Xmz19UuvL-Se99JD-2">
          <mxGeometry relative="1" as="geometry" />
        </mxCell>
        <mxCell id="o3A2Xmz19UuvL-Se99JD-34" value="" style="edgeStyle=orthogonalEdgeStyle;rounded=0;orthogonalLoop=1;jettySize=auto;html=1;" edge="1" parent="WIyWlLk6GJQsqaUBKTNV-1" source="o3A2Xmz19UuvL-Se99JD-10" target="o3A2Xmz19UuvL-Se99JD-31">
          <mxGeometry relative="1" as="geometry" />
        </mxCell>
        <mxCell id="o3A2Xmz19UuvL-Se99JD-38" value="" style="edgeStyle=orthogonalEdgeStyle;rounded=0;orthogonalLoop=1;jettySize=auto;html=1;" edge="1" parent="WIyWlLk6GJQsqaUBKTNV-1" source="o3A2Xmz19UuvL-Se99JD-10" target="o3A2Xmz19UuvL-Se99JD-36">
          <mxGeometry relative="1" as="geometry" />
        </mxCell>
        <mxCell id="o3A2Xmz19UuvL-Se99JD-10" value="获取SASE&lt;br&gt;应用列表" style="strokeWidth=2;html=1;shape=mxgraph.flowchart.terminator;whiteSpace=wrap;" vertex="1" parent="WIyWlLk6GJQsqaUBKTNV-1">
          <mxGeometry x="350" y="380" width="100" height="40" as="geometry" />
        </mxCell>
        <mxCell id="o3A2Xmz19UuvL-Se99JD-30" value="" style="edgeStyle=orthogonalEdgeStyle;rounded=0;orthogonalLoop=1;jettySize=auto;html=1;" edge="1" parent="WIyWlLk6GJQsqaUBKTNV-1" source="o3A2Xmz19UuvL-Se99JD-27" target="o3A2Xmz19UuvL-Se99JD-10">
          <mxGeometry relative="1" as="geometry" />
        </mxCell>
        <mxCell id="o3A2Xmz19UuvL-Se99JD-27" value="选中全部分组" style="strokeWidth=2;html=1;shape=mxgraph.flowchart.terminator;whiteSpace=wrap;" vertex="1" parent="WIyWlLk6GJQsqaUBKTNV-1">
          <mxGeometry x="350" y="300" width="100" height="40" as="geometry" />
        </mxCell>
        <mxCell id="o3A2Xmz19UuvL-Se99JD-35" value="" style="edgeStyle=orthogonalEdgeStyle;rounded=0;orthogonalLoop=1;jettySize=auto;html=1;" edge="1" parent="WIyWlLk6GJQsqaUBKTNV-1" source="o3A2Xmz19UuvL-Se99JD-31" target="o3A2Xmz19UuvL-Se99JD-32">
          <mxGeometry relative="1" as="geometry" />
        </mxCell>
        <mxCell id="o3A2Xmz19UuvL-Se99JD-31" value="切换ZTA应用" style="strokeWidth=2;html=1;shape=mxgraph.flowchart.terminator;whiteSpace=wrap;" vertex="1" parent="WIyWlLk6GJQsqaUBKTNV-1">
          <mxGeometry x="500" y="380" width="100" height="40" as="geometry" />
        </mxCell>
        <mxCell id="o3A2Xmz19UuvL-Se99JD-40" value="" style="edgeStyle=orthogonalEdgeStyle;rounded=0;orthogonalLoop=1;jettySize=auto;html=1;" edge="1" parent="WIyWlLk6GJQsqaUBKTNV-1" source="o3A2Xmz19UuvL-Se99JD-32" target="o3A2Xmz19UuvL-Se99JD-33">
          <mxGeometry relative="1" as="geometry" />
        </mxCell>
        <mxCell id="o3A2Xmz19UuvL-Se99JD-32" value="获取ZTA&lt;br&gt;引用分组" style="strokeWidth=2;html=1;shape=mxgraph.flowchart.terminator;whiteSpace=wrap;" vertex="1" parent="WIyWlLk6GJQsqaUBKTNV-1">
          <mxGeometry x="500" y="460" width="100" height="40" as="geometry" />
        </mxCell>
        <mxCell id="o3A2Xmz19UuvL-Se99JD-41" value="" style="edgeStyle=orthogonalEdgeStyle;rounded=0;orthogonalLoop=1;jettySize=auto;html=1;" edge="1" parent="WIyWlLk6GJQsqaUBKTNV-1" source="o3A2Xmz19UuvL-Se99JD-33" target="o3A2Xmz19UuvL-Se99JD-39">
          <mxGeometry relative="1" as="geometry" />
        </mxCell>
        <mxCell id="o3A2Xmz19UuvL-Se99JD-33" value="选中全部分组" style="strokeWidth=2;html=1;shape=mxgraph.flowchart.terminator;whiteSpace=wrap;" vertex="1" parent="WIyWlLk6GJQsqaUBKTNV-1">
          <mxGeometry x="500" y="540" width="100" height="40" as="geometry" />
        </mxCell>
        <mxCell id="o3A2Xmz19UuvL-Se99JD-37" style="edgeStyle=orthogonalEdgeStyle;rounded=0;orthogonalLoop=1;jettySize=auto;html=1;" edge="1" parent="WIyWlLk6GJQsqaUBKTNV-1" source="o3A2Xmz19UuvL-Se99JD-36">
          <mxGeometry relative="1" as="geometry">
            <mxPoint x="400" y="360" as="targetPoint" />
            <Array as="points">
              <mxPoint x="230" y="360" />
            </Array>
          </mxGeometry>
        </mxCell>
        <mxCell id="o3A2Xmz19UuvL-Se99JD-36" value="切换SASE&lt;br&gt;应用分组" style="strokeWidth=2;html=1;shape=mxgraph.flowchart.terminator;whiteSpace=wrap;" vertex="1" parent="WIyWlLk6GJQsqaUBKTNV-1">
          <mxGeometry x="180" y="380" width="100" height="40" as="geometry" />
        </mxCell>
        <mxCell id="o3A2Xmz19UuvL-Se99JD-45" value="" style="edgeStyle=orthogonalEdgeStyle;rounded=0;orthogonalLoop=1;jettySize=auto;html=1;" edge="1" parent="WIyWlLk6GJQsqaUBKTNV-1" source="o3A2Xmz19UuvL-Se99JD-39" target="o3A2Xmz19UuvL-Se99JD-44">
          <mxGeometry relative="1" as="geometry" />
        </mxCell>
        <mxCell id="o3A2Xmz19UuvL-Se99JD-47" value="" style="edgeStyle=orthogonalEdgeStyle;rounded=0;orthogonalLoop=1;jettySize=auto;html=1;" edge="1" parent="WIyWlLk6GJQsqaUBKTNV-1" source="o3A2Xmz19UuvL-Se99JD-39" target="o3A2Xmz19UuvL-Se99JD-42">
          <mxGeometry relative="1" as="geometry" />
        </mxCell>
        <mxCell id="o3A2Xmz19UuvL-Se99JD-39" value="获取ZTA&lt;br&gt;应用列表" style="strokeWidth=2;html=1;shape=mxgraph.flowchart.terminator;whiteSpace=wrap;" vertex="1" parent="WIyWlLk6GJQsqaUBKTNV-1">
          <mxGeometry x="500" y="620" width="100" height="40" as="geometry" />
        </mxCell>
        <mxCell id="o3A2Xmz19UuvL-Se99JD-43" style="edgeStyle=orthogonalEdgeStyle;rounded=0;orthogonalLoop=1;jettySize=auto;html=1;" edge="1" parent="WIyWlLk6GJQsqaUBKTNV-1" source="o3A2Xmz19UuvL-Se99JD-42">
          <mxGeometry relative="1" as="geometry">
            <mxPoint x="550" y="600" as="targetPoint" />
            <Array as="points">
              <mxPoint x="690" y="600" />
              <mxPoint x="550" y="600" />
            </Array>
          </mxGeometry>
        </mxCell>
        <mxCell id="o3A2Xmz19UuvL-Se99JD-42" value="切换ZTA分组" style="strokeWidth=2;html=1;shape=mxgraph.flowchart.terminator;whiteSpace=wrap;" vertex="1" parent="WIyWlLk6GJQsqaUBKTNV-1">
          <mxGeometry x="640" y="620" width="100" height="40" as="geometry" />
        </mxCell>
        <mxCell id="o3A2Xmz19UuvL-Se99JD-44" value="结束" style="strokeWidth=2;html=1;shape=mxgraph.flowchart.start_2;whiteSpace=wrap;fillColor=#d5e8d4;strokeColor=#82b366;" vertex="1" parent="WIyWlLk6GJQsqaUBKTNV-1">
          <mxGeometry x="525" y="690" width="50" height="50" as="geometry" />
        </mxCell>
      </root>
    </mxGraphModel>
  </diagram>
</mxfile>
